<?xml version="1.0" encoding="UTF-8"?>
<svg version="1.1" xmlns="http://www.w3.org/2000/svg" width="24" height="24">
<path d="M0 0 C1.65 0 3.3 0 5 0 C5.33 0.99 5.66 1.98 6 3 C6.639375 3.37125 7.27875 3.7425 7.9375 4.125 C10.77241726 6.70219751 10.90461361 9.15069558 11.5078125 12.84375 C11.92925543 15.27914751 11.92925543 15.27914751 14 18 C13.01 18.33 12.02 18.66 11 19 C11 20.65 11 22.3 11 24 C4.73 24 -1.54 24 -8 24 C-8.13392857 10.60714286 -8.13392857 10.60714286 -7 7 C-6.34 7 -5.68 7 -5 7 C-4.34 5.68 -3.68 4.36 -3 3 C-2.34 3 -1.68 3 -1 3 C-0.67 2.01 -0.34 1.02 0 0 Z M1 5 C0.67 6.65 0.34 8.3 0 10 C0.66 10 1.32 10 2 10 C2.33 8.35 2.66 6.7 3 5 C2.34 5 1.68 5 1 5 Z " fill="#3C3735" transform="translate(9,0)"/>
<path d="M0 0 C0.66 0 1.32 0 2 0 C2.33 1.65 2.66 3.3 3 5 C3 3.68 3 2.36 3 1 C3.99 1 4.98 1 6 1 C6.33 1.66 6.66 2.32 7 3 C7.66 2.67 8.32 2.34 9 2 C9.33 4.31 9.66 6.62 10 9 C10.33 7.02 10.66 5.04 11 3 C12.32 3 13.64 3 15 3 C15.66 5.97 16.32 8.94 17 12 C11.39 12 5.78 12 0 12 C0 8.04 0 4.08 0 0 Z " fill="#818181" transform="translate(2,12)"/>
<path d="M0 0 C0.12117188 0.61488281 0.24234375 1.22976562 0.3671875 1.86328125 C0.53476562 2.67152344 0.70234375 3.47976562 0.875 4.3125 C1.11863281 5.51326172 1.11863281 5.51326172 1.3671875 6.73828125 C1.94478999 9.25301118 1.94478999 9.25301118 4 12 C3.01 12.33 2.02 12.66 1 13 C1 14.65 1 16.3 1 18 C-1.09749995 15.64031256 -1.96905704 14.45383006 -2.1875 11.25 C-2.125625 10.5075 -2.06375 9.765 -2 9 C-3.32 9 -4.64 9 -6 9 C-5.79375 9.61875 -5.5875 10.2375 -5.375 10.875 C-5.25125 11.57625 -5.1275 12.2775 -5 13 C-5.66 13.66 -6.32 14.32 -7 15 C-7 10.05 -7 5.1 -7 0 C-4.3333581 -1.33332095 -2.83319697 -0.67102033 0 0 Z " fill="#A4877E" transform="translate(19,6)"/>
<path d="M0 0 C1.65 0 3.3 0 5 0 C5.33 0.99 5.66 1.98 6 3 C6.66 3.66 7.32 4.32 8 5 C3.25 6.125 3.25 6.125 1 5 C1 6.32 1 7.64 1 9 C-0.32 9 -1.64 9 -3 9 C-3.33 7.35 -3.66 5.7 -4 4 C-3.01 3.67 -2.02 3.34 -1 3 C-0.67 2.01 -0.34 1.02 0 0 Z " fill="#793426" transform="translate(9,0)"/>
<path d="M0 0 C1.32 0 2.64 0 4 0 C4.66 2.97 5.32 5.94 6 9 C3.36 9 0.72 9 -2 9 C-1.67 7.88625 -1.34 6.7725 -1 5.625 C0.088643 2.30540283 0.088643 2.30540283 0 0 Z " fill="#ECE7E6" transform="translate(13,15)"/>
<path d="M0 0 C2.15021623 3.22532434 2.37437287 5.24623721 3 9 C3.99 10.485 3.99 10.485 5 12 C4.01 12.33 3.02 12.66 2 13 C2 14.65 2 16.3 2 18 C1.67 18 1.34 18 1 18 C0.67 12.06 0.34 6.12 0 0 Z " fill="#1F1E1B" transform="translate(18,6)"/>
<path d="M0 0 C0.33 0 0.66 0 1 0 C1 3.3 1 6.6 1 10 C0.01 10 -0.98 10 -2 10 C-2.22036864 6.14354879 -1.60355101 3.50776784 0 0 Z " fill="#7C7B7A" transform="translate(10,14)"/>
<path d="M0 0 C1.65 0 3.3 0 5 0 C5.33 0.99 5.66 1.98 6 3 C6.66 3.66 7.32 4.32 8 5 C5.625 5.625 5.625 5.625 3 6 C2.34 5.34 1.68 4.68 1 4 C1.99 3.01 2.98 2.02 4 1 C2.68 0.67 1.36 0.34 0 0 Z " fill="#2D1611" transform="translate(9,0)"/>
<path d="M0 0 C1.32 0 2.64 0 4 0 C4 1.65 4 3.3 4 5 C3.01 5 2.02 5 1 5 C0.67 3.35 0.34 1.7 0 0 Z " fill="#C9907E" transform="translate(5,4)"/>
</svg>
